<?xml version="1.0" encoding="UTF-8"?>
<svg width="512" height="512" version="1.1" viewBox="0 0 512 512" xmlns="http://www.w3.org/2000/svg">
 <path d="m256 42.667c-117.82 0-213.33 95.513-213.33 213.33s95.513 213.33 213.33 213.33 213.33-95.513 213.33-213.33-95.513-213.33-213.33-213.33zm0 384c-94.257 0-170.67-76.41-170.67-170.67s76.41-170.67 170.67-170.67 170.67 76.41 170.67 170.67-76.41 170.67-170.67 170.67z" fill="#2f2f2f"/>
 <path d="m256 85.333c-94.257 0-170.67 76.41-170.67 170.67s76.41 170.67 170.67 170.67 170.67-76.41 170.67-170.67-76.41-170.67-170.67-170.67zm76.8 247.47-76.8-38.4-76.8 38.4 14.677-85.333-62.123-60.587 85.333-12.373 38.913-76.8 38.913 76.8 85.333 12.373-62.123 60.587z" fill="#4CAF50"/>
</svg>